<svg xmlns="http://www.w3.org/2000/svg" viewBox="0 0 720 320" font-family="Helvetica,Arial" font-size="11"><rect width="720" height="320" fill="#faf8f1"/><text x="360" y="16" text-anchor="middle" font-size="13" fill="#233">S1 flyback bank: secondary total voltage, startup @12 V (cycle-by-cycle DCM)</text><line x1="62" y1="280" x2="704" y2="280" stroke="#ddd6c4" stroke-width="0.6"/><text x="56" y="283" text-anchor="end" fill="#555">0</text><text x="62" y="294" text-anchor="middle" fill="#555">0.00395</text><line x1="62" y1="217" x2="704" y2="217" stroke="#ddd6c4" stroke-width="0.6"/><text x="56" y="220" text-anchor="end" fill="#555">5.6</text><text x="222.5" y="294" text-anchor="middle" fill="#555">11.8</text><line x1="62" y1="154" x2="704" y2="154" stroke="#ddd6c4" stroke-width="0.6"/><text x="56" y="157" text-anchor="end" fill="#555">11.2</text><text x="383" y="294" text-anchor="middle" fill="#555">23.6</text><line x1="62" y1="91.00000000000003" x2="704" y2="91.00000000000003" stroke="#ddd6c4" stroke-width="0.6"/><text x="56" y="94.00000000000003" text-anchor="end" fill="#555">16.8</text><text x="543.5" y="294" text-anchor="middle" fill="#555">35.5</text><line x1="62" y1="28" x2="704" y2="28" stroke="#ddd6c4" stroke-width="0.6"/><text x="56" y="31" text-anchor="end" fill="#555">22.4</text><text x="704" y="294" text-anchor="middle" fill="#555">47.3</text><polyline points="62.0,272.8 64.1,233.9 66.3,215.3 68.4,200.9 70.6,188.7 72.7,178.0 74.9,168.3 77.0,159.4 79.2,151.1 81.3,143.3 83.5,135.9 85.6,128.9 87.8,122.2 89.9,115.8 92.1,109.6 94.2,103.6 96.4,97.9 98.5,92.3 100.6,86.8 102.8,81.5 104.9,76.4 107.1,71.4 109.2,66.5 111.4,61.7 113.5,57.0 115.7,52.4 117.8,47.9 120.0,43.5 122.1,40.0 124.3,40.0 126.4,40.0 128.6,40.0 130.7,40.0 132.9,40.0 135.0,40.0 137.2,40.0 139.3,40.0 141.4,40.0 143.6,40.0 145.7,40.0 147.9,40.0 150.0,40.0 152.2,40.0 154.3,40.0 156.5,40.0 158.6,40.0 160.8,40.0 162.9,40.0 165.1,40.0 167.2,40.0 169.4,40.0 171.5,40.0 173.7,40.0 175.8,40.0 177.9,40.0 180.1,40.0 182.2,40.0 184.4,40.0 186.5,40.0 188.7,40.0 190.8,40.0 193.0,40.0 195.1,40.0 197.3,40.0 199.4,40.0 201.6,40.0 203.7,40.0 205.9,40.0 208.0,40.0 210.2,40.0 212.3,40.0 214.4,40.0 216.6,40.0 218.7,40.0 220.9,40.0 223.0,40.0 225.2,40.0 227.3,40.0 229.5,40.0 231.6,40.0 233.8,40.0 235.9,40.0 238.1,40.0 240.2,40.0 242.4,40.0 244.5,40.0 246.7,40.0 248.8,40.0 250.9,40.0 253.1,40.0 255.2,40.0 257.4,40.0 259.5,40.0 261.7,40.0 263.8,40.0 266.0,40.0 268.1,40.0 270.3,40.0 272.4,40.0 274.6,40.0 276.7,40.0 278.9,40.0 281.0,40.0 283.2,40.0 285.3,40.0 287.5,40.0 289.6,40.0 291.7,40.0 293.9,40.0 296.0,40.0 298.2,40.0 300.3,40.0 302.5,40.0 304.6,40.0 306.8,40.0 308.9,40.0 311.1,40.0 313.2,40.0 315.4,40.0 317.5,40.0 319.7,40.0 321.8,40.0 324.0,40.0 326.1,40.0 328.2,40.0 330.4,40.0 332.5,40.0 334.7,40.0 336.8,40.0 339.0,40.0 341.1,40.0 343.3,40.0 345.4,40.0 347.6,40.0 349.7,40.0 351.9,40.0 354.0,40.0 356.2,40.0 358.3,40.0 360.5,40.0 362.6,40.0 364.7,40.0 366.9,40.0 369.0,40.0 371.2,40.0 373.3,40.0 375.5,40.0 377.6,40.0 379.8,40.0 381.9,40.0 384.1,40.0 386.2,40.0 388.4,40.0 390.5,40.0 392.7,40.0 394.8,40.0 397.0,40.0 399.1,40.0 401.3,40.0 403.4,40.0 405.5,40.0 407.7,40.0 409.8,40.0 412.0,40.0 414.1,40.0 416.3,40.0 418.4,40.0 420.6,40.0 422.7,40.0 424.9,40.0 427.0,40.0 429.2,40.0 431.3,40.0 433.5,40.0 435.6,40.0 437.8,40.0 439.9,40.0 442.0,40.0 444.2,40.0 446.3,40.0 448.5,40.0 450.6,40.0 452.8,40.0 454.9,40.0 457.1,40.0 459.2,40.0 461.4,40.0 463.5,40.0 465.7,40.0 467.8,40.0 470.0,40.0 472.1,40.0 474.3,40.0 476.4,40.0 478.5,40.0 480.7,40.0 482.8,40.0 485.0,40.0 487.1,40.0 489.3,40.0 491.4,40.0 493.6,40.0 495.7,40.0 497.9,40.0 500.0,40.0 502.2,40.0 504.3,40.0 506.5,40.0 508.6,40.0 510.8,40.0 512.9,40.0 515.1,40.0 517.2,40.0 519.3,40.0 521.5,40.0 523.6,40.0 525.8,40.0 527.9,40.0 530.1,40.0 532.2,40.0 534.4,40.0 536.5,40.0 538.7,40.0 540.8,40.0 543.0,40.0 545.1,40.0 547.3,40.0 549.4,40.0 551.6,40.0 553.7,40.0 555.8,40.0 558.0,40.0 560.1,40.0 562.3,40.0 564.4,40.0 566.6,40.0 568.7,40.0 570.9,40.0 573.0,40.0 575.2,40.0 577.3,40.0 579.5,40.0 581.6,40.0 583.8,40.0 585.9,40.0 588.1,40.0 590.2,40.0 592.3,40.0 594.5,40.0 596.6,40.0 598.8,40.0 600.9,40.0 603.1,40.0 605.2,40.0 607.4,40.0 609.5,40.0 611.7,40.0 613.8,40.0 616.0,40.0 618.1,40.0 620.3,40.0 622.4,40.0 624.6,40.0 626.7,40.0 628.8,40.0 631.0,40.0 633.1,40.0 635.3,40.0 637.4,40.0 639.6,40.0 641.7,40.0 643.9,40.0 646.0,40.0 648.2,40.0 650.3,40.0 652.5,40.0 654.6,40.0 656.8,40.0 658.9,40.0 661.1,40.0 663.2,40.0 665.4,40.0 667.5,40.0 669.6,40.0 671.8,40.0 673.9,40.0 676.1,40.0 678.2,40.0 680.4,40.0 682.5,40.0 684.7,40.0 686.8,40.0 689.0,40.0 691.1,40.0 693.3,40.0 695.4,40.0 697.6,40.0 699.7,40.0 701.9,40.0 704.0,40.0" fill="none" stroke="#2a6b4f" stroke-width="1.6"/><text x="700" y="42" text-anchor="end" fill="#2a6b4f">Vsec (V)</text><text x="360" y="314" text-anchor="middle" fill="#555">time (ms)</text><text x="14" y="160" transform="rotate(-90 14 160)" text-anchor="middle" fill="#555">V</text></svg>