<svg xmlns="http://www.w3.org/2000/svg" viewBox="0 0 720 320" font-family="Helvetica,Arial" font-size="11"><rect width="720" height="320" fill="#faf8f1"/><text x="360" y="16" text-anchor="middle" font-size="13" fill="#233">S10 LS driver VCC2 decay after total LV loss (typ, DC-bias-derated MLCC)</text><line x1="62" y1="280" x2="704" y2="280" stroke="#ddd6c4" stroke-width="0.6"/><text x="56" y="283" text-anchor="end" fill="#555">0</text><text x="62" y="294" text-anchor="middle" fill="#555">0.05</text><line x1="62" y1="217" x2="704" y2="217" stroke="#ddd6c4" stroke-width="0.6"/><text x="56" y="220" text-anchor="end" fill="#555">4.01</text><text x="222.5" y="294" text-anchor="middle" fill="#555">0.813</text><line x1="62" y1="154" x2="704" y2="154" stroke="#ddd6c4" stroke-width="0.6"/><text x="56" y="157" text-anchor="end" fill="#555">8.03</text><text x="383" y="294" text-anchor="middle" fill="#555">1.58</text><line x1="62" y1="91" x2="704" y2="91" stroke="#ddd6c4" stroke-width="0.6"/><text x="56" y="94" text-anchor="end" fill="#555">12</text><text x="543.5" y="294" text-anchor="middle" fill="#555">2.34</text><line x1="62" y1="28" x2="704" y2="28" stroke="#ddd6c4" stroke-width="0.6"/><text x="56" y="31" text-anchor="end" fill="#555">16.1</text><text x="704" y="294" text-anchor="middle" fill="#555">3.1</text><polyline points="62.0,40.0 72.5,41.7 83.0,43.3 93.6,44.9 104.1,46.5 114.6,48.1 125.1,49.7 135.7,51.3 146.2,52.8 156.7,54.3 167.2,55.8 177.8,57.3 188.3,58.8 198.8,60.2 209.3,61.6 219.9,63.1 230.4,64.5 240.9,65.9 251.4,67.3 262.0,68.6 272.5,70.0 283.0,71.3 293.5,72.6 304.1,74.0 314.6,75.3 325.1,76.5 335.6,77.8 346.2,79.1 356.7,80.3 367.2,81.6 377.7,82.8 388.3,84.0 398.8,85.3 409.3,86.5 419.8,87.6 430.4,88.8 440.9,90.0 451.4,91.2 461.9,92.3 472.5,93.5 483.0,94.6 493.5,95.7 504.0,96.8 514.6,97.9 525.1,99.0 535.6,100.1 546.1,101.2 556.7,102.3 567.2,103.4 577.7,104.4 588.2,105.5 598.8,106.5 609.3,107.5 619.8,108.6 630.3,109.6 640.9,110.6 651.4,111.6 661.9,112.6 672.4,113.6 683.0,114.6 693.5,115.6 704.0,116.5" fill="none" stroke="#2a6b4f" stroke-width="1.6"/><text x="700" y="42" text-anchor="end" fill="#2a6b4f">VCC2 (V)</text><text x="360" y="314" text-anchor="middle" fill="#555">time (ms)</text><text x="14" y="160" transform="rotate(-90 14 160)" text-anchor="middle" fill="#555">V</text></svg>