<svg xmlns="http://www.w3.org/2000/svg" viewBox="0 0 720 320" font-family="Helvetica,Arial" font-size="11"><rect width="720" height="320" fill="#faf8f1"/><text x="360" y="16" text-anchor="middle" font-size="13" fill="#233">S3 cap RMS current / phase RMS vs modulation index (SVPWM, cosφ = 1 and 0.85)</text><line x1="62" y1="280" x2="704" y2="280" stroke="#ddd6c4" stroke-width="0.6"/><text x="56" y="283" text-anchor="end" fill="#555">0</text><text x="62" y="294" text-anchor="middle" fill="#555">0.3</text><line x1="62" y1="217" x2="704" y2="217" stroke="#ddd6c4" stroke-width="0.6"/><text x="56" y="220" text-anchor="end" fill="#555">0.17</text><text x="222.5" y="294" text-anchor="middle" fill="#555">0.487</text><line x1="62" y1="154" x2="704" y2="154" stroke="#ddd6c4" stroke-width="0.6"/><text x="56" y="157" text-anchor="end" fill="#555">0.341</text><text x="383.00000000000006" y="294" text-anchor="middle" fill="#555">0.675</text><line x1="62" y1="91" x2="704" y2="91" stroke="#ddd6c4" stroke-width="0.6"/><text x="56" y="94" text-anchor="end" fill="#555">0.511</text><text x="543.5" y="294" text-anchor="middle" fill="#555">0.863</text><line x1="62" y1="28" x2="704" y2="28" stroke="#ddd6c4" stroke-width="0.6"/><text x="56" y="31" text-anchor="end" fill="#555">0.682</text><text x="704" y="294" text-anchor="middle" fill="#555">1.05</text><polyline points="62.0,72.4 190.4,47.9 318.8,40.0 447.2,46.9 575.6,69.0 704.0,112.6" fill="none" stroke="#2a6b4f" stroke-width="1.6"/><text x="700" y="42" text-anchor="end" fill="#2a6b4f">cosφ 1.0</text><polyline points="62.0,94.8 190.4,71.0 318.8,60.9 447.2,62.6 575.6,75.9 704.0,103.2" fill="none" stroke="#a33c3c" stroke-width="1.6"/><text x="700" y="56" text-anchor="end" fill="#a33c3c">cosφ 0.85</text><text x="360" y="314" text-anchor="middle" fill="#555">M</text><text x="14" y="160" transform="rotate(-90 14 160)" text-anchor="middle" fill="#555">I_C / I_ph</text></svg>