<svg xmlns="http://www.w3.org/2000/svg" viewBox="0 0 720 320" font-family="Helvetica,Arial" font-size="11"><rect width="720" height="320" fill="#faf8f1"/><text x="360" y="16" text-anchor="middle" font-size="13" fill="#233">S8 turn-off Vds peak vs commutation-loop inductance (850 V, 481 A, 20 kA/µs)</text><line x1="62" y1="280" x2="704" y2="280" stroke="#ddd6c4" stroke-width="0.6"/><text x="56" y="283" text-anchor="end" fill="#555">0</text><text x="62" y="294" text-anchor="middle" fill="#555">5</text><line x1="62" y1="217" x2="704" y2="217" stroke="#ddd6c4" stroke-width="0.6"/><text x="56" y="220" text-anchor="end" fill="#555">332</text><text x="222.5" y="294" text-anchor="middle" fill="#555">18.5</text><line x1="62" y1="154" x2="704" y2="154" stroke="#ddd6c4" stroke-width="0.6"/><text x="56" y="157" text-anchor="end" fill="#555">664</text><text x="383" y="294" text-anchor="middle" fill="#555">32</text><line x1="62" y1="91" x2="704" y2="91" stroke="#ddd6c4" stroke-width="0.6"/><text x="56" y="94" text-anchor="end" fill="#555">996</text><text x="543.5" y="294" text-anchor="middle" fill="#555">45.5</text><line x1="62" y1="28" x2="704" y2="28" stroke="#ddd6c4" stroke-width="0.6"/><text x="56" y="31" text-anchor="end" fill="#555">1330</text><text x="704" y="294" text-anchor="middle" fill="#555">59</text><polyline points="62.0,95.8 73.9,93.6 85.8,91.6 97.7,89.7 109.6,88.0 121.4,86.3 133.3,84.7 145.2,83.2 157.1,81.8 169.0,80.4 180.9,79.0 192.8,77.7 204.7,76.5 216.6,75.3 228.4,74.1 240.3,72.9 252.2,71.8 264.1,70.7 276.0,69.6 287.9,68.5 299.8,67.5 311.7,66.5 323.6,65.5 335.4,64.5 347.3,63.6 359.2,62.6 371.1,61.7 383.0,60.8 394.9,59.9 406.8,59.0 418.7,58.1 430.6,57.2 442.4,56.4 454.3,55.6 466.2,54.7 478.1,53.9 490.0,53.1 501.9,52.3 513.8,51.5 525.7,50.8 537.6,50.0 549.4,49.2 561.3,48.5 573.2,47.7 585.1,47.0 597.0,46.3 608.9,45.5 620.8,44.8 632.7,44.1 644.6,43.4 656.4,42.7 668.3,42.0 680.2,41.3 692.1,40.7 704.0,40.0" fill="none" stroke="#2a6b4f" stroke-width="1.6"/><text x="700" y="42" text-anchor="end" fill="#2a6b4f">Vds,pk (V)</text><text x="360" y="314" text-anchor="middle" fill="#555">L_loop (nH)</text><text x="14" y="160" transform="rotate(-90 14 160)" text-anchor="middle" fill="#555">V</text></svg>